<svg xmlns="http://www.w3.org/2000/svg" width="484" height="484"><ellipse cx="242.708" cy="384.526" rx="182.708" ry="45.28" fill="#b8cbcd"/><path d="M262.132 96.042l-17.528 17.528-17.528-17.528c-39.8-39.796-104.324-39.796-144.12 0-39.796 39.796-39.796 104.32 0 144.116l17.528 17.532 144.12 144.116L388.72 257.69l17.528-17.532c39.796-39.796 39.796-104.32 0-144.116-39.796-39.796-104.32-39.8-144.116 0z" fill="#ffbab0"/><g fill="#783741"><path d="M244.604 413.806c-3.072 0-6.14-1.172-8.484-3.516L74.472 248.642c-44.416-44.412-44.416-116.676 0-161.084 21.512-21.516 50.116-33.364 80.544-33.364 30.424 0 59.032 11.848 80.548 33.364l9.044 9.044 9.044-9.044c21.512-21.516 50.116-33.364 80.544-33.364 30.424 0 59.032 11.848 80.544 33.364 21.516 21.512 33.364 50.116 33.364 80.544 0 30.424-11.848 59.032-33.364 80.544L253.096 410.294a12.002 12.002 0 0 1-8.492 3.512zM155.016 78.194c-24.016 0-46.592 9.352-63.576 26.332-35.056 35.056-35.056 92.092 0 127.148l153.164 153.164 153.16-153.164c35.056-35.056 35.056-92.092 0-127.148-16.98-16.98-39.56-26.332-63.576-26.332s-46.592 9.352-63.576 26.332l-17.528 17.528c-4.688 4.688-12.28 4.688-16.968 0l-17.528-17.528c-16.98-16.98-39.56-26.332-63.572-26.332z"/><path d="M244.604 386.194c-3.072 0-6.14-1.172-8.484-3.516L93.552 240.118l-15.52-6.98c-6.044-2.72-8.744-9.824-6.024-15.868 2.72-6.044 9.82-8.748 15.868-6.024l17.528 7.884a11.91 11.91 0 0 1 3.564 2.46l135.636 135.632L380.236 221.59c.536-.54 1.12-1.024 1.752-1.448l17.528-11.884c5.488-3.724 12.948-2.28 16.668 3.2 3.72 5.484 2.284 12.948-3.2 16.668L396.4 239.37 253.088 382.678a11.957 11.957 0 0 1-8.484 3.516z" opacity=".2"/></g><path d="M56 229.806H12c-6.628 0-12-5.372-12-12s5.372-12 12-12h44c6.628 0 12 5.372 12 12s-5.372 12-12 12z" fill="#783741"/><path fill="#ffbab0" d="M60 218.194h104l32-68 52 144 44-124 20 44h120"/><path d="M248 302.194a7.998 7.998 0 0 1-7.524-5.28l-45.452-125.86-23.788 50.548a8 8 0 0 1-7.24 4.592h-104a8 8 0 0 1 0-16h98.92l29.84-63.408c1.376-2.924 4.156-4.744 7.612-4.584a8 8 0 0 1 7.148 5.272l44.412 122.98 36.528-102.936a7.99 7.99 0 0 1 7.196-5.316c3.34-.096 6.276 1.712 7.624 4.684l17.872 39.308h114.848c4.416 0 8 3.584 8 8s-3.584 8-8 8h-120a7.99 7.99 0 0 1-7.28-4.692l-11.804-25.964-37.376 105.332a7.993 7.993 0 0 1-7.516 5.324H248z" fill="#783741"/><path d="M472 225.806h-36c-6.628 0-12-5.372-12-12s5.372-12 12-12h36c6.628 0 12 5.372 12 12s-5.372 12-12 12z" fill="#783741"/></svg>