<?xml version="1.0" encoding="UTF-8" standalone="no"?>
<!-- Svg Vector Icons : http://www.onlinewebfonts.com/icon -->

<svg
   xmlns:dc="http://purl.org/dc/elements/1.1/"
   xmlns:cc="http://creativecommons.org/ns#"
   xmlns:rdf="http://www.w3.org/1999/02/22-rdf-syntax-ns#"
   xmlns:svg="http://www.w3.org/2000/svg"
   xmlns="http://www.w3.org/2000/svg"
   xmlns:sodipodi="http://sodipodi.sourceforge.net/DTD/sodipodi-0.dtd"
   xmlns:inkscape="http://www.inkscape.org/namespaces/inkscape"
   version="1.1"
   x="0px"
   y="0px"
   viewBox="0 0 484 484"
   enable-background="new 0 0 1000 1000"
   xml:space="preserve"
   id="svg8"
   sodipodi:docname="e2f3363ba7ce73354bf6d05032083dd1.svg"
   width="484"
   height="484"
   inkscape:version="0.92.3 (2405546, 2018-03-11)"><defs
   id="defs12" /><sodipodi:namedview
   pagecolor="#ffffff"
   bordercolor="#666666"
   borderopacity="1"
   objecttolerance="10"
   gridtolerance="10"
   guidetolerance="10"
   inkscape:pageopacity="0"
   inkscape:pageshadow="2"
   inkscape:window-width="1366"
   inkscape:window-height="705"
   id="namedview10"
   showgrid="false"
   inkscape:zoom="0.944"
   inkscape:cx="325.48024"
   inkscape:cy="262.5125"
   inkscape:window-x="-8"
   inkscape:window-y="-8"
   inkscape:window-maximized="1"
   inkscape:current-layer="svg8" />
<metadata
   id="metadata2"> Svg Vector Icons : http://www.onlinewebfonts.com/icon <rdf:RDF><cc:Work
     rdf:about=""><dc:format>image/svg+xml</dc:format><dc:type
       rdf:resource="http://purl.org/dc/dcmitype/StillImage" /><dc:title></dc:title></cc:Work></rdf:RDF></metadata>
<g
   id="g6"
   transform="matrix(0.48945229,0,0,0.50488396,-2.3097772,-11.645786)"><path
     d="m 987.4,466.9 -54,95.1 -54.7,96.4 h -0.1 c -2.7,4.4 -7.5,7.4 -13.1,7.4 -5.6,0 -10.6,-3.1 -13.3,-7.7 v 0 L 797.8,562 743.7,466.6 c -1.5,-2.4 -2.4,-5.3 -2.4,-8.3 0,-8.7 6.9,-15.7 15.5,-15.7 h 70.8 C 800.8,284.2 665.2,163.8 502,163.8 c -63.6,0 -123,18.3 -173.4,50 -6.8,4.9 -15.1,7.9 -24,7.9 -22.8,0 -41.3,-18.8 -41.3,-42 0,-15.9 8.8,-29.8 21.6,-36.9 C 348,103 422.4,80 502.1,80 711,80 883.5,237.7 911.1,442.5 h 63.5 c 8.5,0 15.4,7 15.4,15.7 0,3.2 -1,6.2 -2.6,8.7 z m -744.2,24.4 h -71.5 c -0.1,2.9 -0.1,5.7 -0.1,8.7 0,185.7 147.9,336.2 330.4,336.2 74.4,0 143,-25 198.3,-67.3 0,0 0,0.1 0.1,0.1 7.4,-7.1 17.3,-11.4 28.2,-11.4 22.8,0 41.3,18.8 41.3,42 0,12.4 -5.3,23.7 -13.8,31.4 0,0 0,0 0,0.1 -0.3,0.2 -0.6,0.5 -0.9,0.7 -1,0.8 -2.1,1.6 -3.1,2.4 -69.4,53.8 -156,85.8 -250,85.8 -228,0 -412.8,-188.1 -412.8,-420 0,-2.9 0,-5.8 0.1,-8.8 h -64 c -8.5,0 -15.4,-7 -15.4,-15.7 0,-3.1 0.9,-6 2.4,-8.4 l 54.2,-95.4 54.5,-96 v 0 c 2.7,-4.6 7.6,-7.7 13.2,-7.7 5.5,0 10.4,2.9 13.1,7.4 h 0.1 l 54.7,96.3 54,95.2 c 1.6,2.5 2.5,5.5 2.5,8.7 0,8.7 -6.9,15.7 -15.5,15.7 z"
     id="path4"
     inkscape:connector-curvature="0" /></g>
</svg>